<?xml version="1.0" encoding="UTF-8"?>
<svg width="43px" height="43px" viewBox="0 0 43 43" version="1.1" xmlns="http://www.w3.org/2000/svg" xmlns:xlink="http://www.w3.org/1999/xlink">
    <!-- Generator: sketchtool 49.3 (51167) - http://www.bohemiancoding.com/sketch -->
    <title>3CE62D26-CA2F-4EE2-962D-9D257BBB37CB</title>
    <desc>Created with sketchtool.</desc>
    <defs>
        <linearGradient x1="22.9973556%" y1="89.2531622%" x2="75.0228744%" y2="10.164388%" id="linearGradient-1">
            <stop stop-color="#FD8B25" offset="0%"></stop>
            <stop stop-color="#FC061A" offset="100%"></stop>
        </linearGradient>
    </defs>
    <g id="Symbols" stroke="none" stroke-width="1" fill="none" fill-rule="evenodd">
        <g id="icon/monogram/apivideo" fill="url(#linearGradient-1)">
            <g id="icon-monogram-apivideo">
                <path d="M21.4023495,0.5 L21.4468558,0.5 C23.2533335,0.504011078 25.0598112,0.977318308 26.6787268,1.9207239 L26.9608647,2.08598033 L36.2078371,7.50414478 C38.92113,9.3460319 40.6338267,12.367176 40.8301311,15.6642823 C40.8428472,15.8760672 40.85,16.0886544 40.85,16.3012415 L40.85,16.3750454 C40.85,17.2663069 39.8931152,17.8230446 39.1293558,17.3754083 L16.1704785,3.92144972 C15.4075139,3.47541782 15.4098981,2.36515137 16.1728628,1.91992169 C17.7909836,0.977318308 19.5958718,0.504011078 21.4023495,0.5 Z M9.77508643,5.64781778 C10.0969621,5.46009932 10.4561913,5.36624009 10.8154205,5.36624009 C11.1762392,5.36624009 11.5378526,5.46090154 11.8605231,5.65102665 L39.8136397,22.0290612 C40.4558016,22.4053004 40.85,23.0976125 40.85,23.8476841 L40.85,26.6939452 C40.85,26.9065323 40.8428472,27.1183173 40.8301311,27.3301022 C40.8293364,27.3413332 40.8293364,27.351762 40.8285416,27.362993 C40.733171,28.8799828 39.0427275,29.7375513 37.7393296,28.973842 L26.1541886,22.1854933 L20.6044156,18.933311 L16.5654716,16.5667749 L6.95927009,10.9376277 C5.60421312,10.1442365 5.57083342,8.18041257 6.89568971,7.33487728 C7.01251867,7.26027123 7.13252665,7.18807182 7.25412413,7.11747684 L9.77508643,5.64781778 Z M2,26.622548 C2,25.9759622 2.52612769,25.5130838 3.09835117,25.5130838 C3.28193953,25.5130838 3.47029642,25.5604145 3.64752675,25.6647025 L26.681111,39.1611785 C27.4106959,39.5879572 27.4091064,40.6524974 26.6787268,41.0776717 C25.0677587,42.0178684 23.2692286,42.4919778 21.4691089,42.5 L21.3808911,42.5 C19.5815662,42.4919778 17.783036,42.0178684 16.172068,41.0776717 L7.25412413,35.8817209 C4.00437166,33.9852832 2,30.4828097 2,26.6939452 L2,26.622548 Z M2.00079475,16.2073823 C2.01271608,14.8973641 3.10550396,13.9828383 4.2817411,13.9828383 C4.66799194,13.9828383 5.06377984,14.0815108 5.43254608,14.2973068 L18.606402,22.0162258 L19.8215821,22.7285933 L35.5624962,31.9524687 C37.0359716,32.8156528 37.1003467,34.9968771 35.6292556,35.86327 C35.6189238,35.8688855 35.6070024,35.8753032 35.5974654,35.8817209 L33.1043195,37.3337313 C32.396193,37.7460701 31.5235522,37.7452679 30.8162204,37.3305224 L3.13729415,21.1113265 C2.43234662,20.6989877 2,19.9392895 2,19.1178206 L2,16.3012415 C2,16.2699551 2,16.2386687 2.00079475,16.2073823 Z" id="apivideo" transform="translate(21.425000, 21.500000) scale(-1, 1) translate(-21.425000, -21.500000) "></path>
            </g>
        </g>
    </g>
</svg>